<svg width="34" height="34" viewBox="0 0 34 34" fill="none" xmlns="http://www.w3.org/2000/svg">
<path d="M18.4167 17C18.4167 16.2176 19.051 15.5833 19.8334 15.5833H26.9167C27.6991 15.5833 28.3334 16.2176 28.3334 17V26.9167C28.3334 27.6991 27.6991 28.3333 26.9167 28.3333H19.8334C19.051 28.3333 18.4167 27.6991 18.4167 26.9167V17Z" stroke="black" stroke-width="2.83333" stroke-linecap="round"/>
<path d="M5.66669 7.08332C5.66669 6.30092 6.30095 5.66666 7.08335 5.66666H12.75C13.5324 5.66666 14.1667 6.30092 14.1667 7.08332V17C14.1667 17.7824 13.5324 18.4167 12.75 18.4167H7.08335C6.30095 18.4167 5.66669 17.7824 5.66669 17V7.08332Z" stroke="black" stroke-width="2.83333" stroke-linecap="round"/>
<path d="M5.66669 24.0833C5.66669 23.3009 6.30095 22.6667 7.08335 22.6667H12.75C13.5324 22.6667 14.1667 23.3009 14.1667 24.0833V26.9167C14.1667 27.6991 13.5324 28.3333 12.75 28.3333H7.08335C6.30095 28.3333 5.66669 27.6991 5.66669 26.9167V24.0833Z" stroke="black" stroke-width="2.83333" stroke-linecap="round"/>
<path d="M18.4167 7.08332C18.4167 6.30092 19.051 5.66666 19.8334 5.66666H26.9167C27.6991 5.66666 28.3334 6.30092 28.3334 7.08332V9.91666C28.3334 10.6991 27.6991 11.3333 26.9167 11.3333H19.8334C19.051 11.3333 18.4167 10.6991 18.4167 9.91666V7.08332Z" stroke="black" stroke-width="2.83333" stroke-linecap="round"/>
</svg>
